<svg xmlns="http://www.w3.org/2000/svg" width="220" height="21" viewBox="0 0 220 21"><path d="M147.518,13.133a4.46,4.46,0,0,0-.759-1.024,4.149,4.149,0,0,0-1.149-.829,4.864,4.864,0,0,0,2.245-1.924,5.579,5.579,0,0,0,.815-2.876,6.079,6.079,0,0,0-.45-2.469,5.432,5.432,0,0,0-1.375-1.967A5.728,5.728,0,0,0,144.893.867a6.1,6.1,0,0,0-2.118-.421H130.86V20.005h3.593V12.516h5.486c.241,0,.52.013.828.042a5.907,5.907,0,0,1,.954.168,4.679,4.679,0,0,1,.955.364,3.23,3.23,0,0,1,.856.66,3.411,3.411,0,0,1,.792,1.616l.7,4.61h3.794l-.818-5.4A4.969,4.969,0,0,0,147.518,13.133Zm-3.4-4.729a2.731,2.731,0,0,1-2,.743h-7.675V3.813h7.675a2.728,2.728,0,0,1,2,.744,2.589,2.589,0,0,1,.756,1.923A2.586,2.586,0,0,1,144.123,8.4Z" fill="#1a1919" fill-rule="evenodd"></path><path d="M168.775,13.133a4.455,4.455,0,0,0-.758-1.024,4.169,4.169,0,0,0-1.15-.829,4.867,4.867,0,0,0,2.246-1.924,5.588,5.588,0,0,0,.815-2.876,6.1,6.1,0,0,0-.451-2.469A5.442,5.442,0,0,0,168.1,2.044,5.757,5.757,0,0,0,166.151.867a6.1,6.1,0,0,0-2.12-.421H152.119V20.005h3.59V12.516H161.2c.24,0,.52.013.829.042a5.926,5.926,0,0,1,.954.168,4.693,4.693,0,0,1,.954.364,3.246,3.246,0,0,1,.856.66,3.411,3.411,0,0,1,.792,1.616l.7,4.61h3.794l-.819-5.4A4.969,4.969,0,0,0,168.775,13.133ZM165.38,8.4a2.731,2.731,0,0,1-2,.743h-7.676V3.813h7.676a2.728,2.728,0,0,1,2,.744,2.585,2.585,0,0,1,.756,1.923A2.582,2.582,0,0,1,165.38,8.4Z" fill="#1a1919" fill-rule="evenodd"></path><path d="M38.064,13.112a4.463,4.463,0,0,0-.758-1.024,4.19,4.19,0,0,0-1.15-.829A4.859,4.859,0,0,0,38.4,9.335a5.582,5.582,0,0,0,.815-2.876,6.1,6.1,0,0,0-.45-2.469,5.441,5.441,0,0,0-1.375-1.966A5.749,5.749,0,0,0,35.439.846,6.1,6.1,0,0,0,33.321.425H21.407V19.953H25V12.5h5.486c.242,0,.521.013.829.042a5.938,5.938,0,0,1,.955.168,4.753,4.753,0,0,1,.954.364,3.246,3.246,0,0,1,.856.66,3.416,3.416,0,0,1,.792,1.616l.7,4.61H39.36l-.818-5.4A4.969,4.969,0,0,0,38.064,13.112Zm-3.4-4.729a2.725,2.725,0,0,1-1.994.743H25V3.792h7.676a2.722,2.722,0,0,1,1.994.745,2.575,2.575,0,0,1,.756,1.922A2.577,2.577,0,0,1,34.668,8.383Z" fill="#1a1919" fill-rule="evenodd"></path><path d="M59.562,12.146a4.694,4.694,0,0,0-.913-1.135,5.211,5.211,0,0,0-1.348-.887,5.517,5.517,0,0,0,.744-.476,5.311,5.311,0,0,0,.928-.886,4.823,4.823,0,0,0,.784-1.36,5.163,5.163,0,0,0,.324-1.909,5.6,5.6,0,0,0-.308-1.783,4.919,4.919,0,0,0-.955-1.656A4.854,4.854,0,0,0,57.133.834,8.98,8.98,0,0,0,53.825.416H43.091l.027,19.591H54.606a6.213,6.213,0,0,0,2.6-.493,5.31,5.31,0,0,0,1.77-1.247,4.736,4.736,0,0,0,1-1.685,5.733,5.733,0,0,0,.309-1.825,4.994,4.994,0,0,0-.182-1.333A5.72,5.72,0,0,0,59.562,12.146ZM46.78,3.725h6.9a3.415,3.415,0,0,1,1.235.2,2.24,2.24,0,0,1,.812.518,2.174,2.174,0,0,1,.617,1.531,2.218,2.218,0,0,1-.729,1.77,3.626,3.626,0,0,1-2.309.7H46.78Zm8.991,12.268a3.5,3.5,0,0,1-2.183.645H46.78v-4.83h6.535a4.1,4.1,0,0,1,1.5.241,3.025,3.025,0,0,1,.982.6,2.065,2.065,0,0,1,.532.83,2.79,2.79,0,0,1,.156.883A2.1,2.1,0,0,1,55.771,15.993Z" fill="#1a1919" fill-rule="evenodd"></path><polygon points="97.264 13.627 86.704 0.4 83.635 0.4 83.635 19.958 87.315 19.958 87.315 7.081 97.873 19.994 100.93 19.994 100.93 0.353 97.264 0.353 97.264 13.627" fill="#1a1919" fill-rule="evenodd"></polygon><path d="M14.149,11.247a6.593,6.593,0,0,1-.586,3.262l-.051.1c-.86,1.457-3.121,1.977-4.588,1.982S5.2,16.066,4.336,14.609l-.051-.1A6.606,6.606,0,0,1,3.7,11.247V.426H0V11.77a9.439,9.439,0,0,0,1.174,5.1c1.474,1.978,4.042,3.38,7.744,3.387H8.93c3.7-.007,6.27-1.409,7.744-3.387a9.43,9.43,0,0,0,1.174-5.1V.426h-3.7Z" fill="#1a1919" fill-rule="evenodd"></path><path d="M69.346.332,61.329,19.954h3.953l1.687-4.138h8.864l1.69,4.138h3.893L73.4.332Zm-1.028,12.2,3.094-7.54,3.078,7.54Z" fill="#1a1919" fill-rule="evenodd"></path><path d="M116.777.387l-8.018,19.622h3.953L114.4,15.87h8.864l1.689,4.139h3.894L120.829.387Zm-1.028,12.2,3.094-7.541,3.077,7.541Z" fill="#1a1919" fill-rule="evenodd"></path><path d="M182.674,0a10.184,10.184,0,1,0,10.184,10.184A10.184,10.184,0,0,0,182.674,0Zm0,16.831a6.647,6.647,0,1,1,6.647-6.647A6.647,6.647,0,0,1,182.674,16.831Z" fill="#1a1919" fill-rule="evenodd"></path><polygon points="215.863 0.338 212.199 13.01 208.368 0.338 204.506 0.338 200.675 13.01 197.01 0.338 193.163 0.338 198.698 19.98 202.3 19.98 206.437 6.884 210.575 19.98 214.176 19.98 219.712 0.338 215.863 0.338" fill="#1a1919" fill-rule="evenodd"></polygon></svg>