<svg width="125" height="43" viewBox="0 0 125 43" fill="none" xmlns="http://www.w3.org/2000/svg">
<path d="M34.2677 18.3712H45.6096V20.4873H41.15V32.383H38.6977V20.4873H34.2578V18.3712H34.2677ZM45.1251 22.2375H47.2214V24.1954H47.2609C47.3302 23.9186 47.4587 23.6516 47.6466 23.3945C47.8345 23.1374 48.0619 22.8902 48.3289 22.6825C48.5959 22.465 48.8925 22.2969 49.2188 22.1584C49.5451 22.0299 49.8813 21.9607 50.2175 21.9607C50.4746 21.9607 50.6625 21.9706 50.7614 21.9805C50.8603 21.9903 50.9592 22.0101 51.0679 22.02V24.1757C50.9097 24.146 50.7515 24.1262 50.5834 24.1064C50.4153 24.0867 50.2571 24.0768 50.0989 24.0768C49.7231 24.0768 49.3672 24.1559 49.031 24.3042C48.6947 24.4525 48.408 24.68 48.1608 24.9667C47.9136 25.2634 47.7158 25.6193 47.5675 26.0544C47.4192 26.4895 47.3499 26.9839 47.3499 27.5476V32.3731H45.1152V22.2375H45.1251ZM61.3419 32.383H59.1467V30.9689H59.1071C58.8303 31.4831 58.4248 31.8885 57.881 32.1951C57.3371 32.5016 56.7834 32.6598 56.2198 32.6598C54.8848 32.6598 53.9158 32.3335 53.3225 31.671C52.7292 31.0085 52.4325 30.0098 52.4325 28.6748V22.2375H54.6673V28.4573C54.6673 29.3472 54.8354 29.9801 55.1815 30.346C55.5177 30.7118 56.0022 30.8997 56.6153 30.8997C57.0899 30.8997 57.4756 30.8305 57.792 30.6822C58.1084 30.5338 58.3655 30.346 58.5534 30.0988C58.7512 29.8614 58.8896 29.5648 58.9786 29.2286C59.0676 28.8924 59.1071 28.5265 59.1071 28.131V22.2474H61.3419V32.383ZM65.1489 29.1297C65.2181 29.7823 65.4653 30.2372 65.8905 30.5042C66.3256 30.7613 66.8398 30.8997 67.443 30.8997C67.6506 30.8997 67.888 30.8799 68.1549 30.8503C68.4219 30.8206 68.679 30.7514 68.9065 30.6624C69.1438 30.5734 69.3317 30.435 69.4899 30.257C69.6382 30.079 69.7074 29.8515 69.6975 29.5648C69.6876 29.278 69.5789 29.0407 69.3811 28.8627C69.1833 28.6748 68.9361 28.5364 68.6296 28.4177C68.323 28.309 67.977 28.2101 67.5814 28.131C67.1859 28.0519 66.7904 27.9629 66.3849 27.8739C65.9696 27.7849 65.5642 27.6662 65.1786 27.5377C64.7929 27.4091 64.4468 27.2311 64.1403 27.0037C63.8338 26.7862 63.5865 26.4994 63.4086 26.1533C63.2207 25.8072 63.1317 25.382 63.1317 24.8678C63.1317 24.3141 63.2701 23.8592 63.5371 23.4835C63.8041 23.1077 64.1502 22.8111 64.5556 22.5836C64.9709 22.3562 65.4258 22.198 65.9301 22.0991C66.4344 22.0101 66.9189 21.9607 67.3738 21.9607C67.8979 21.9607 68.4022 22.02 68.8768 22.1288C69.3514 22.2375 69.7865 22.4155 70.1722 22.6726C70.5578 22.9198 70.8742 23.2462 71.1313 23.6417C71.3884 24.0372 71.5466 24.5217 71.6159 25.0854H69.2822C69.1734 24.5514 68.9361 24.1855 68.5505 24.0076C68.1648 23.8197 67.7199 23.7307 67.2254 23.7307C67.0672 23.7307 66.8794 23.7406 66.6618 23.7702C66.4443 23.7999 66.2465 23.8493 66.0487 23.9186C65.8609 23.9878 65.7026 24.0965 65.5642 24.235C65.4357 24.3734 65.3664 24.5514 65.3664 24.7788C65.3664 25.0557 65.4653 25.2733 65.6532 25.4414C65.8411 25.6095 66.0883 25.7479 66.3948 25.8666C66.7014 25.9753 67.0475 26.0742 67.443 26.1533C67.8385 26.2324 68.2439 26.3214 68.6592 26.4104C69.0647 26.4994 69.4602 26.6181 69.8557 26.7466C70.2513 26.8752 70.5974 27.0532 70.9039 27.2806C71.2104 27.508 71.4576 27.7849 71.6455 28.1211C71.8334 28.4573 71.9323 28.8825 71.9323 29.3769C71.9323 29.9801 71.7938 30.4844 71.517 30.9096C71.2401 31.3249 70.8841 31.671 70.449 31.9281C70.0139 32.1852 69.5195 32.383 68.9856 32.5016C68.4516 32.6203 67.9176 32.6796 67.3935 32.6796C66.7508 32.6796 66.1575 32.6104 65.6137 32.4621C65.0698 32.3137 64.5952 32.0962 64.1996 31.8094C63.8041 31.5128 63.4877 31.1469 63.2602 30.7118C63.0328 30.2767 62.9141 29.7527 62.8944 29.1495H65.1489V29.1297ZM72.5256 22.2375H74.2165V19.1919H76.4512V22.2375H78.4685V23.9087H76.4512V29.3275C76.4512 29.5648 76.4611 29.7626 76.4809 29.9405C76.5007 30.1086 76.5501 30.257 76.6193 30.3756C76.6886 30.4943 76.7973 30.5833 76.9457 30.6426C77.094 30.7019 77.2819 30.7316 77.539 30.7316C77.6972 30.7316 77.8554 30.7316 78.0136 30.7217C78.1718 30.7118 78.33 30.6921 78.4882 30.6525V32.383C78.241 32.4126 77.9938 32.4324 77.7664 32.4621C77.5291 32.4917 77.2917 32.5016 77.0445 32.5016C76.4512 32.5016 75.9766 32.4423 75.6206 32.3335C75.2646 32.2247 74.9779 32.0566 74.7801 31.8391C74.5725 31.6216 74.4439 31.3546 74.3648 31.0283C74.2956 30.7019 74.2461 30.3262 74.2363 29.9109V23.9284H72.5454V22.2375H72.5256ZM80.0506 22.2375H82.1667V23.612H82.2062C82.5227 23.0187 82.9577 22.6034 83.5214 22.3463C84.085 22.0892 84.6882 21.9607 85.3507 21.9607C86.1517 21.9607 86.8439 22.0991 87.4372 22.3859C88.0305 22.6627 88.5249 23.0484 88.9204 23.5428C89.3159 24.0372 89.6027 24.6107 89.8005 25.2634C89.9982 25.916 90.0971 26.6181 90.0971 27.3597C90.0971 28.042 90.0081 28.7045 89.8301 29.3374C89.6521 29.9801 89.3852 30.5437 89.0292 31.0381C88.6732 31.5326 88.2183 31.9182 87.6646 32.2149C87.1108 32.5115 86.4681 32.6598 85.7166 32.6598C85.3903 32.6598 85.064 32.6302 84.7376 32.5708C84.4113 32.5115 84.0949 32.4126 83.7983 32.2841C83.5016 32.1555 83.2148 31.9874 82.9676 31.7798C82.7105 31.5721 82.5029 31.3348 82.3249 31.0678H82.2853V36.1306H80.0506V22.2375ZM87.8624 27.3201C87.8624 26.8653 87.803 26.4203 87.6844 25.9852C87.5657 25.5501 87.3877 25.1744 87.1504 24.8382C86.9131 24.502 86.6164 24.235 86.2703 24.0372C85.9144 23.8395 85.5089 23.7307 85.0541 23.7307C84.1147 23.7307 83.4027 24.057 82.9281 24.7096C82.4534 25.3623 82.2161 26.2324 82.2161 27.3201C82.2161 27.8343 82.2755 28.309 82.404 28.7441C82.5326 29.1791 82.7105 29.5549 82.9676 29.8713C83.2148 30.1877 83.5115 30.435 83.8576 30.6129C84.2037 30.8008 84.6091 30.8898 85.064 30.8898C85.5782 30.8898 86.0034 30.781 86.3593 30.5734C86.7153 30.3657 87.0021 30.0889 87.2295 29.7626C87.4569 29.4263 87.625 29.0506 87.7239 28.6254C87.8129 28.2002 87.8624 27.7651 87.8624 27.3201ZM91.8078 18.3712H94.0425V20.4873H91.8078V18.3712ZM91.8078 22.2375H94.0425V32.383H91.8078V22.2375ZM96.04 18.3712H98.2747V32.383H96.04V18.3712ZM105.127 32.6598C104.316 32.6598 103.595 32.5214 102.962 32.2544C102.329 31.9874 101.795 31.6117 101.35 31.1469C100.915 30.6723 100.579 30.1086 100.351 29.456C100.124 28.8034 100.005 28.0815 100.005 27.3004C100.005 26.5291 100.124 25.8171 100.351 25.1645C100.579 24.5119 100.915 23.9482 101.35 23.4736C101.785 22.9989 102.329 22.6331 102.962 22.3661C103.595 22.0991 104.316 21.9607 105.127 21.9607C105.938 21.9607 106.66 22.0991 107.293 22.3661C107.926 22.6331 108.46 23.0088 108.905 23.4736C109.34 23.9482 109.676 24.5119 109.903 25.1645C110.131 25.8171 110.249 26.5291 110.249 27.3004C110.249 28.0815 110.131 28.8034 109.903 29.456C109.676 30.1086 109.34 30.6723 108.905 31.1469C108.47 31.6216 107.926 31.9874 107.293 32.2544C106.66 32.5214 105.938 32.6598 105.127 32.6598ZM105.127 30.8898C105.622 30.8898 106.057 30.781 106.423 30.5734C106.789 30.3657 107.085 30.0889 107.323 29.7527C107.56 29.4165 107.728 29.0308 107.847 28.6056C107.955 28.1804 108.015 27.7453 108.015 27.3004C108.015 26.8653 107.955 26.4401 107.847 26.005C107.738 25.5699 107.56 25.1942 107.323 24.8579C107.085 24.5217 106.789 24.2548 106.423 24.0471C106.057 23.8395 105.622 23.7307 105.127 23.7307C104.633 23.7307 104.198 23.8395 103.832 24.0471C103.466 24.2548 103.169 24.5316 102.932 24.8579C102.695 25.1942 102.527 25.5699 102.408 26.005C102.299 26.4401 102.24 26.8653 102.24 27.3004C102.24 27.7453 102.299 28.1804 102.408 28.6056C102.517 29.0308 102.695 29.4165 102.932 29.7527C103.169 30.0889 103.466 30.3657 103.832 30.5734C104.198 30.7909 104.633 30.8898 105.127 30.8898ZM110.902 22.2375H112.593V19.1919H114.828V22.2375H116.845V23.9087H114.828V29.3275C114.828 29.5648 114.838 29.7626 114.857 29.9405C114.877 30.1086 114.927 30.257 114.996 30.3756C115.065 30.4943 115.174 30.5833 115.322 30.6426C115.471 30.7019 115.658 30.7316 115.915 30.7316C116.074 30.7316 116.232 30.7316 116.39 30.7217C116.548 30.7118 116.707 30.6921 116.865 30.6525V32.383C116.618 32.4126 116.37 32.4324 116.143 32.4621C115.906 32.4917 115.668 32.5016 115.421 32.5016C114.828 32.5016 114.353 32.4423 113.997 32.3335C113.641 32.2247 113.354 32.0566 113.157 31.8391C112.949 31.6216 112.82 31.3546 112.741 31.0283C112.672 30.7019 112.623 30.3262 112.613 29.9109V23.9284H110.922V22.2375H110.902Z" fill="black"></path>
<path d="M31.6571 18.4207H21.4128L18.2485 8.67078L15.0744 18.4207L4.83008 18.4108L13.1264 24.4426L9.95222 34.1826L18.2485 28.1606L26.5349 34.1826L23.3707 24.4426L31.6571 18.4207Z" fill="#00B67A"></path>
<path d="M24.0821 26.5982L23.3702 24.3931L18.248 28.1111L24.0821 26.5982Z" fill="#005128"></path>
<path d="M37.2547 7.32243C37.697 7.32243 38.088 7.40897 38.4277 7.58205C38.7675 7.74872 39.0303 7.9891 39.2162 8.3032C39.4021 8.6109 39.495 8.97308 39.495 9.38974C39.495 9.85769 39.3636 10.2647 39.1008 10.6109C38.8444 10.9506 38.4982 11.1814 38.0624 11.3032L39.572 14.0532H38.6297L37.2354 11.4667H35.5143V14.0532H34.6777V7.32243H37.2547ZM35.5143 10.6974H37.1874C37.6297 10.6974 37.9822 10.5788 38.245 10.3417C38.5079 10.1045 38.6393 9.78718 38.6393 9.38974C38.6393 8.99872 38.5079 8.68461 38.245 8.44743C37.9822 8.21026 37.6329 8.09167 37.197 8.09167H35.5143V10.6974Z" fill="black"></path>
<path d="M40.0139 11.6013C40.0139 11.1013 40.1101 10.6622 40.3024 10.284C40.5011 9.90577 40.7767 9.6141 41.1293 9.40897C41.4818 9.19743 41.8857 9.09167 42.3408 9.09167C42.7895 9.09167 43.187 9.18461 43.5331 9.37051C43.8793 9.55641 44.1517 9.82564 44.3504 10.1782C44.5492 10.5308 44.6549 10.9442 44.6677 11.4186C44.6677 11.4891 44.6613 11.6013 44.6485 11.7551H40.8408V11.8224C40.8536 12.3032 41.0011 12.6878 41.2831 12.9763C41.5652 13.2647 41.9338 13.409 42.3889 13.409C42.7415 13.409 43.0395 13.3224 43.2831 13.1494C43.5331 12.9699 43.6998 12.7231 43.7831 12.409H44.5812C44.4851 12.909 44.2447 13.3192 43.8601 13.6397C43.4754 13.9538 43.0043 14.1109 42.4466 14.1109C41.9594 14.1109 41.5331 14.0083 41.1677 13.8032C40.8024 13.5917 40.5171 13.2968 40.312 12.9186C40.1133 12.534 40.0139 12.0949 40.0139 11.6013ZM43.8504 11.1013C43.812 10.6846 43.6549 10.3609 43.3793 10.1301C43.1101 9.89936 42.7671 9.78397 42.3504 9.78397C41.9786 9.78397 41.6517 9.90577 41.3697 10.1494C41.0876 10.3929 40.9274 10.7103 40.8889 11.1013H43.8504Z" fill="black"></path>
<path d="M44.8893 9.14936H45.7354L47.2162 13.159L48.6874 9.14936H49.5143L47.6777 14.0532H46.7258L44.8893 9.14936Z" fill="black"></path>
<path d="M50.4971 7.25513C50.6445 7.25513 50.7663 7.3032 50.8625 7.39936C50.9586 7.49551 51.0067 7.61731 51.0067 7.76474C51.0067 7.91218 50.9586 8.03397 50.8625 8.13013C50.7663 8.22628 50.6445 8.27436 50.4971 8.27436C50.3496 8.27436 50.2278 8.22628 50.1317 8.13013C50.0355 8.03397 49.9875 7.91218 49.9875 7.76474C49.9875 7.61731 50.0355 7.49551 50.1317 7.39936C50.2278 7.3032 50.3496 7.25513 50.4971 7.25513ZM50.1028 9.14936H50.8913V14.0532H50.1028V9.14936Z" fill="black"></path>
<path d="M51.7984 11.6013C51.7984 11.1013 51.8945 10.6622 52.0868 10.284C52.2856 9.90577 52.5612 9.6141 52.9138 9.40897C53.2663 9.19743 53.6702 9.09167 54.1253 9.09167C54.574 9.09167 54.9715 9.18461 55.3176 9.37051C55.6638 9.55641 55.9362 9.82564 56.1349 10.1782C56.3336 10.5308 56.4394 10.9442 56.4522 11.4186C56.4522 11.4891 56.4458 11.6013 56.433 11.7551H52.6253V11.8224C52.6381 12.3032 52.7856 12.6878 53.0676 12.9763C53.3497 13.2647 53.7183 13.409 54.1734 13.409C54.5259 13.409 54.824 13.3224 55.0676 13.1494C55.3176 12.9699 55.4843 12.7231 55.5676 12.409H56.3657C56.2695 12.909 56.0291 13.3192 55.6445 13.6397C55.2599 13.9538 54.7888 14.1109 54.2311 14.1109C53.7439 14.1109 53.3176 14.0083 52.9522 13.8032C52.5868 13.5917 52.3016 13.2968 52.0965 12.9186C51.8977 12.534 51.7984 12.0949 51.7984 11.6013ZM55.6349 11.1013C55.5965 10.6846 55.4394 10.3609 55.1638 10.1301C54.8945 9.89936 54.5516 9.78397 54.1349 9.78397C53.7631 9.78397 53.4362 9.90577 53.1541 10.1494C52.8721 10.3929 52.7118 10.7103 52.6734 11.1013H55.6349Z" fill="black"></path>
<path d="M56.7495 9.14936H57.5765L58.7976 13.1397L60.0861 9.14936H60.8169L62.038 13.1397L63.3169 9.14936H64.1149L62.4803 14.0532H61.6149L60.4322 10.409L59.2015 14.0532L58.3361 14.0628L56.7495 9.14936Z" fill="black"></path>
<path d="M71.4702 9.14936V14.0532H70.7875L70.6817 13.3994C70.3099 13.8737 69.7875 14.1109 69.1144 14.1109C68.5311 14.1109 68.0631 13.9314 67.7106 13.5724C67.358 13.2135 67.1817 12.6494 67.1817 11.8801V9.14936H67.9702V11.832C67.9702 12.3385 68.0792 12.7263 68.2971 12.9955C68.5215 13.2583 68.8388 13.3897 69.249 13.3897C69.6977 13.3897 70.0471 13.2295 70.2971 12.909C70.5535 12.5885 70.6817 12.1526 70.6817 11.6013V9.14936H71.4702Z" fill="black"></path>
<path d="M73.1604 12.4378C73.1732 12.7327 73.3014 12.9731 73.545 13.159C73.795 13.3449 74.1155 13.4378 74.5065 13.4378C74.8527 13.4378 75.1315 13.3705 75.3431 13.2359C75.561 13.0949 75.67 12.9122 75.67 12.6878C75.67 12.4955 75.6187 12.3481 75.5162 12.2455C75.4136 12.1429 75.279 12.0724 75.1123 12.034C74.9521 11.9955 74.7213 11.9571 74.42 11.9186C73.9969 11.8673 73.6508 11.8 73.3815 11.7167C73.1123 11.6333 72.8944 11.5019 72.7277 11.3224C72.561 11.1365 72.4777 10.8833 72.4777 10.5628C72.4777 10.2744 72.5578 10.0179 72.7181 9.79359C72.8847 9.56923 73.1091 9.39615 73.3912 9.27436C73.6732 9.14615 73.9905 9.08205 74.3431 9.08205C74.92 9.08205 75.3879 9.21667 75.7469 9.4859C76.1123 9.75513 76.3142 10.1397 76.3527 10.6397H75.5642C75.5322 10.3833 75.4072 10.1718 75.1892 10.0051C74.9713 9.83846 74.6988 9.75513 74.3719 9.75513C74.0386 9.75513 73.7694 9.82564 73.5642 9.96667C73.3591 10.1013 73.2565 10.2808 73.2565 10.5051C73.2565 10.6718 73.3046 10.8 73.4008 10.8897C73.4969 10.9795 73.6187 11.0404 73.7662 11.0724C73.92 11.1045 74.1508 11.1397 74.4585 11.1782C74.8879 11.2295 75.2405 11.3 75.5162 11.3897C75.7982 11.4795 76.0226 11.6237 76.1892 11.8224C76.3623 12.0212 76.4488 12.2904 76.4488 12.6301C76.4488 12.925 76.3623 13.1846 76.1892 13.409C76.0162 13.6333 75.7822 13.8064 75.4873 13.9282C75.1924 14.05 74.8655 14.1109 74.5065 14.1109C73.8655 14.1109 73.3495 13.9635 72.9585 13.6686C72.5738 13.3737 72.3783 12.9635 72.3719 12.4378H73.1604Z" fill="black"></path>
<path d="M82.1194 14.1109C81.6451 14.1109 81.222 14.0051 80.8502 13.7936C80.4848 13.582 80.1996 13.2872 79.9944 12.909C79.7893 12.5308 79.6868 12.0949 79.6868 11.6013C79.6868 11.1077 79.7893 10.6718 79.9944 10.2936C80.1996 9.91538 80.4848 9.62051 80.8502 9.40897C81.222 9.19743 81.6451 9.09167 82.1194 9.09167C82.5938 9.09167 83.0137 9.19743 83.3791 9.40897C83.7509 9.62051 84.0393 9.91538 84.2444 10.2936C84.4496 10.6718 84.5521 11.1077 84.5521 11.6013C84.5521 12.0949 84.4496 12.5308 84.2444 12.909C84.0393 13.2872 83.7509 13.582 83.3791 13.7936C83.0137 14.0051 82.5938 14.1109 82.1194 14.1109ZM82.1194 13.409C82.44 13.409 82.722 13.3321 82.9656 13.1782C83.2156 13.0244 83.4079 12.8096 83.5425 12.534C83.6771 12.2583 83.7444 11.9474 83.7444 11.6013C83.7444 11.2551 83.6771 10.9442 83.5425 10.6686C83.4079 10.3929 83.2156 10.1782 82.9656 10.0244C82.722 9.87051 82.44 9.79359 82.1194 9.79359C81.7989 9.79359 81.5137 9.87051 81.2637 10.0244C81.0201 10.1782 80.831 10.3929 80.6964 10.6686C80.5618 10.9442 80.4944 11.2551 80.4944 11.6013C80.4944 11.9474 80.5618 12.2583 80.6964 12.534C80.831 12.8096 81.0201 13.0244 81.2637 13.1782C81.5137 13.3321 81.7989 13.409 82.1194 13.409Z" fill="black"></path>
<path d="M87.8601 9.09167C88.4563 9.09167 88.9338 9.27115 89.2928 9.63013C89.6582 9.9891 89.8409 10.5532 89.8409 11.3224V14.0532H89.0524V11.3705C89.0524 10.8641 88.937 10.4795 88.7063 10.2167C88.4819 9.94743 88.155 9.81282 87.7255 9.81282C87.264 9.81282 86.9018 9.97308 86.639 10.2936C86.3762 10.6141 86.2447 11.05 86.2447 11.6013V14.0532H85.4563V9.14936H86.139L86.2447 9.81282C86.6165 9.33205 87.155 9.09167 87.8601 9.09167Z" fill="black"></path>
<rect x="0.5" y="0.5" width="124" height="41.1598" rx="9.5" stroke="#C8C8B9"></rect>
</svg>